<mxfile host="65bd71144e">
    <diagram id="O_MjeZbjR_RqYFt3xS2S" name="第 1 页">
        <mxGraphModel dx="820" dy="629" grid="1" gridSize="10" guides="1" tooltips="1" connect="1" arrows="1" fold="1" page="1" pageScale="1" pageWidth="827" pageHeight="1169" math="0" shadow="0">
            <root>
                <mxCell id="0"/>
                <mxCell id="1" parent="0"/>
                <mxCell id="62" style="edgeStyle=none;html=1;exitX=0;exitY=0.25;exitDx=0;exitDy=0;entryX=0.25;entryY=0;entryDx=0;entryDy=0;fontFamily=Times New Roman;fontSize=19;" parent="1" source="61" target="5" edge="1">
                    <mxGeometry relative="1" as="geometry">
                        <Array as="points">
                            <mxPoint x="730" y="283"/>
                            <mxPoint x="730" y="180"/>
                        </Array>
                    </mxGeometry>
                </mxCell>
                <mxCell id="5" value="" style="rounded=0;whiteSpace=wrap;html=1;rotation=90;" parent="1" vertex="1">
                    <mxGeometry x="360" y="70" width="120" height="280" as="geometry"/>
                </mxCell>
                <mxCell id="12" style="edgeStyle=none;html=1;exitX=0.5;exitY=1;exitDx=0;exitDy=0;" parent="1" edge="1">
                    <mxGeometry relative="1" as="geometry">
                        <mxPoint x="300" y="340" as="targetPoint"/>
                        <mxPoint x="300" y="270" as="sourcePoint"/>
                    </mxGeometry>
                </mxCell>
                <mxCell id="13" style="edgeStyle=none;html=1;exitX=0.5;exitY=1;exitDx=0;exitDy=0;" parent="1" edge="1">
                    <mxGeometry relative="1" as="geometry">
                        <mxPoint x="340" y="340" as="targetPoint"/>
                        <mxPoint x="340" y="270" as="sourcePoint"/>
                    </mxGeometry>
                </mxCell>
                <mxCell id="21" value="&lt;font style=&quot;font-size: 19px;&quot; face=&quot;Times New Roman&quot;&gt;Tag_array&lt;br&gt;Regsiter&lt;br&gt;&lt;/font&gt;" style="text;html=1;strokeColor=none;fillColor=none;align=center;verticalAlign=middle;whiteSpace=wrap;rounded=0;" parent="1" vertex="1">
                    <mxGeometry x="335" y="170" width="170" height="30" as="geometry"/>
                </mxCell>
                <mxCell id="22" value="0................................................31" style="rounded=0;whiteSpace=wrap;html=1;fontFamily=Times New Roman;fontSize=19;" parent="1" vertex="1">
                    <mxGeometry x="280" y="240" width="280" height="30" as="geometry"/>
                </mxCell>
                <mxCell id="59" style="edgeStyle=none;html=1;exitX=0;exitY=0.5;exitDx=0;exitDy=0;fontFamily=Times New Roman;fontSize=19;entryX=0;entryY=0.5;entryDx=0;entryDy=0;" parent="1" target="23" edge="1">
                    <mxGeometry relative="1" as="geometry">
                        <mxPoint x="160" y="150" as="sourcePoint"/>
                        <Array as="points">
                            <mxPoint x="160" y="370"/>
                        </Array>
                    </mxGeometry>
                </mxCell>
                <mxCell id="23" value="=" style="rounded=0;whiteSpace=wrap;html=1;fontFamily=Times New Roman;fontSize=19;" parent="1" vertex="1">
                    <mxGeometry x="280" y="340" width="270" height="60" as="geometry"/>
                </mxCell>
                <mxCell id="39" value="" style="group" parent="1" vertex="1" connectable="0">
                    <mxGeometry x="300" y="270" width="239.9999999999999" height="70" as="geometry"/>
                </mxCell>
                <mxCell id="14" style="edgeStyle=none;html=1;exitX=0.5;exitY=1;exitDx=0;exitDy=0;" parent="39" edge="1">
                    <mxGeometry relative="1" as="geometry">
                        <mxPoint x="80" y="70" as="targetPoint"/>
                        <mxPoint x="80" as="sourcePoint"/>
                    </mxGeometry>
                </mxCell>
                <mxCell id="15" style="edgeStyle=none;html=1;exitX=0.5;exitY=1;exitDx=0;exitDy=0;" parent="39" edge="1">
                    <mxGeometry relative="1" as="geometry">
                        <mxPoint y="70" as="targetPoint"/>
                        <mxPoint as="sourcePoint"/>
                    </mxGeometry>
                </mxCell>
                <mxCell id="16" style="edgeStyle=none;html=1;exitX=0.5;exitY=1;exitDx=0;exitDy=0;" parent="39" edge="1">
                    <mxGeometry relative="1" as="geometry">
                        <mxPoint x="40" y="70" as="targetPoint"/>
                        <mxPoint x="40" as="sourcePoint"/>
                    </mxGeometry>
                </mxCell>
                <mxCell id="17" style="edgeStyle=none;html=1;exitX=0.5;exitY=1;exitDx=0;exitDy=0;" parent="39" edge="1">
                    <mxGeometry relative="1" as="geometry">
                        <mxPoint x="199.57999999999998" y="70" as="targetPoint"/>
                        <mxPoint x="199.57999999999998" as="sourcePoint"/>
                    </mxGeometry>
                </mxCell>
                <mxCell id="18" style="edgeStyle=none;html=1;exitX=0.5;exitY=1;exitDx=0;exitDy=0;" parent="39" edge="1">
                    <mxGeometry relative="1" as="geometry">
                        <mxPoint x="119.57999999999998" y="70" as="targetPoint"/>
                        <mxPoint x="119.57999999999998" as="sourcePoint"/>
                    </mxGeometry>
                </mxCell>
                <mxCell id="19" style="edgeStyle=none;html=1;exitX=0.5;exitY=1;exitDx=0;exitDy=0;" parent="39" edge="1">
                    <mxGeometry relative="1" as="geometry">
                        <mxPoint x="159.57999999999998" y="70" as="targetPoint"/>
                        <mxPoint x="159.57999999999998" as="sourcePoint"/>
                    </mxGeometry>
                </mxCell>
                <mxCell id="20" style="edgeStyle=none;html=1;exitX=0.5;exitY=1;exitDx=0;exitDy=0;" parent="39" edge="1">
                    <mxGeometry relative="1" as="geometry">
                        <mxPoint x="239.9999999999999" y="70" as="targetPoint"/>
                        <mxPoint x="239.9999999999999" as="sourcePoint"/>
                    </mxGeometry>
                </mxCell>
                <mxCell id="40" value="" style="group" parent="1" vertex="1" connectable="0">
                    <mxGeometry x="294" y="400" width="239.9999999999999" height="70" as="geometry"/>
                </mxCell>
                <mxCell id="41" style="edgeStyle=none;html=1;exitX=0.5;exitY=1;exitDx=0;exitDy=0;" parent="40" edge="1">
                    <mxGeometry relative="1" as="geometry">
                        <mxPoint x="80" y="70" as="targetPoint"/>
                        <mxPoint x="80" as="sourcePoint"/>
                    </mxGeometry>
                </mxCell>
                <mxCell id="42" style="edgeStyle=none;html=1;exitX=0.5;exitY=1;exitDx=0;exitDy=0;" parent="40" edge="1">
                    <mxGeometry relative="1" as="geometry">
                        <mxPoint y="70" as="targetPoint"/>
                        <mxPoint as="sourcePoint"/>
                    </mxGeometry>
                </mxCell>
                <mxCell id="43" style="edgeStyle=none;html=1;exitX=0.5;exitY=1;exitDx=0;exitDy=0;" parent="40" edge="1">
                    <mxGeometry relative="1" as="geometry">
                        <mxPoint x="40" y="70" as="targetPoint"/>
                        <mxPoint x="40" as="sourcePoint"/>
                    </mxGeometry>
                </mxCell>
                <mxCell id="44" style="edgeStyle=none;html=1;exitX=0.5;exitY=1;exitDx=0;exitDy=0;" parent="40" edge="1">
                    <mxGeometry relative="1" as="geometry">
                        <mxPoint x="199.57999999999998" y="70" as="targetPoint"/>
                        <mxPoint x="199.57999999999998" as="sourcePoint"/>
                    </mxGeometry>
                </mxCell>
                <mxCell id="45" style="edgeStyle=none;html=1;exitX=0.5;exitY=1;exitDx=0;exitDy=0;" parent="40" edge="1">
                    <mxGeometry relative="1" as="geometry">
                        <mxPoint x="119.57999999999998" y="70" as="targetPoint"/>
                        <mxPoint x="119.57999999999998" as="sourcePoint"/>
                    </mxGeometry>
                </mxCell>
                <mxCell id="46" style="edgeStyle=none;html=1;exitX=0.5;exitY=1;exitDx=0;exitDy=0;" parent="40" edge="1">
                    <mxGeometry relative="1" as="geometry">
                        <mxPoint x="159.57999999999998" y="70" as="targetPoint"/>
                        <mxPoint x="159.57999999999998" as="sourcePoint"/>
                    </mxGeometry>
                </mxCell>
                <mxCell id="47" style="edgeStyle=none;html=1;exitX=0.5;exitY=1;exitDx=0;exitDy=0;" parent="40" edge="1">
                    <mxGeometry relative="1" as="geometry">
                        <mxPoint x="239.9999999999999" y="70" as="targetPoint"/>
                        <mxPoint x="239.9999999999999" as="sourcePoint"/>
                    </mxGeometry>
                </mxCell>
                <mxCell id="51" style="edgeStyle=none;html=1;exitX=0.5;exitY=1;exitDx=0;exitDy=0;entryX=0.5;entryY=0;entryDx=0;entryDy=0;fontFamily=Times New Roman;fontSize=19;" parent="1" source="48" target="50" edge="1">
                    <mxGeometry relative="1" as="geometry"/>
                </mxCell>
                <mxCell id="55" style="edgeStyle=none;html=1;exitX=0.5;exitY=1;exitDx=0;exitDy=0;entryX=0;entryY=0.5;entryDx=0;entryDy=0;fontFamily=Times New Roman;fontSize=19;" parent="1" source="48" target="54" edge="1">
                    <mxGeometry relative="1" as="geometry">
                        <Array as="points">
                            <mxPoint x="415" y="555"/>
                        </Array>
                    </mxGeometry>
                </mxCell>
                <mxCell id="48" value="One_Hot_Signal" style="rounded=1;whiteSpace=wrap;html=1;fontFamily=Times New Roman;fontSize=19;" parent="1" vertex="1">
                    <mxGeometry x="280" y="470" width="270" height="60" as="geometry"/>
                </mxCell>
                <mxCell id="52" style="edgeStyle=none;html=1;exitX=0.5;exitY=1;exitDx=0;exitDy=0;fontFamily=Times New Roman;fontSize=19;" parent="1" source="50" edge="1">
                    <mxGeometry relative="1" as="geometry">
                        <mxPoint x="414.7142857142858" y="710" as="targetPoint"/>
                    </mxGeometry>
                </mxCell>
                <mxCell id="50" value="PTE_Line" style="rounded=1;whiteSpace=wrap;html=1;fontFamily=Times New Roman;fontSize=19;" parent="1" vertex="1">
                    <mxGeometry x="280" y="585" width="270" height="60" as="geometry"/>
                </mxCell>
                <mxCell id="53" value="PTE" style="text;html=1;strokeColor=none;fillColor=none;align=center;verticalAlign=middle;whiteSpace=wrap;rounded=0;fontFamily=Times New Roman;fontSize=19;" parent="1" vertex="1">
                    <mxGeometry x="414" y="660" width="60" height="30" as="geometry"/>
                </mxCell>
                <mxCell id="56" style="edgeStyle=none;html=1;exitX=0.5;exitY=1;exitDx=0;exitDy=0;fontFamily=Times New Roman;fontSize=19;" parent="1" source="54" edge="1">
                    <mxGeometry relative="1" as="geometry">
                        <mxPoint x="640.4117647058824" y="700" as="targetPoint"/>
                    </mxGeometry>
                </mxCell>
                <mxCell id="54" value="OR" style="ellipse;whiteSpace=wrap;html=1;aspect=fixed;fontFamily=Times New Roman;fontSize=19;" parent="1" vertex="1">
                    <mxGeometry x="610" y="525" width="60" height="60" as="geometry"/>
                </mxCell>
                <mxCell id="57" value="TLB_MISS" style="text;html=1;strokeColor=none;fillColor=none;align=center;verticalAlign=middle;whiteSpace=wrap;rounded=0;fontFamily=Times New Roman;fontSize=19;" parent="1" vertex="1">
                    <mxGeometry x="660" y="660" width="60" height="30" as="geometry"/>
                </mxCell>
                <mxCell id="60" value="VPN" style="text;html=1;strokeColor=none;fillColor=none;align=center;verticalAlign=middle;whiteSpace=wrap;rounded=0;fontFamily=Times New Roman;fontSize=19;" parent="1" vertex="1">
                    <mxGeometry x="130" y="120" width="60" height="30" as="geometry"/>
                </mxCell>
                <mxCell id="63" style="edgeStyle=none;html=1;exitX=0;exitY=0.5;exitDx=0;exitDy=0;entryX=1;entryY=0.5;entryDx=0;entryDy=0;fontFamily=Times New Roman;fontSize=19;" parent="1" source="61" target="48" edge="1">
                    <mxGeometry relative="1" as="geometry">
                        <Array as="points">
                            <mxPoint x="680" y="375"/>
                            <mxPoint x="680" y="500"/>
                        </Array>
                    </mxGeometry>
                </mxCell>
                <mxCell id="61" value="TLB_Control" style="rounded=1;whiteSpace=wrap;html=1;fontFamily=Times New Roman;fontSize=19;" parent="1" vertex="1">
                    <mxGeometry x="760" y="190" width="130" height="370" as="geometry"/>
                </mxCell>
                <mxCell id="64" value="Refill_Wr" style="text;html=1;align=center;verticalAlign=middle;resizable=0;points=[];autosize=1;strokeColor=none;fillColor=none;fontSize=19;fontFamily=Times New Roman;" parent="1" vertex="1">
                    <mxGeometry x="600" y="140" width="100" height="40" as="geometry"/>
                </mxCell>
                <mxCell id="65" value="&lt;span style=&quot;color: rgb(240, 240, 240); font-family: &amp;quot;Times New Roman&amp;quot;; font-size: 19px; font-style: normal; font-variant-ligatures: normal; font-variant-caps: normal; font-weight: 400; letter-spacing: normal; orphans: 2; text-align: center; text-indent: 0px; text-transform: none; widows: 2; word-spacing: 0px; -webkit-text-stroke-width: 0px; background-color: rgb(42, 37, 47); text-decoration-thickness: initial; text-decoration-style: initial; text-decoration-color: initial; float: none; display: inline !important;&quot;&gt;Refill_Wr&lt;/span&gt;" style="text;whiteSpace=wrap;html=1;fontSize=19;fontFamily=Times New Roman;" parent="1" vertex="1">
                    <mxGeometry x="585" y="460" width="110" height="50" as="geometry"/>
                </mxCell>
            </root>
        </mxGraphModel>
    </diagram>
</mxfile>